<?xml version="1.0" standalone="no"?>
<!DOCTYPE svg PUBLIC "-//W3C//DTD SVG 20010904//EN"
 "http://www.w3.org/TR/2001/REC-SVG-20010904/DTD/svg10.dtd">
<svg version="1.0" xmlns="http://www.w3.org/2000/svg"
 width="500.000000pt" height="500.000000pt" viewBox="0 0 500.000000 500.000000"
 preserveAspectRatio="xMidYMid meet">

<g transform="translate(0.000000,500.000000) scale(0.100000,-0.100000)"
fill="#000000" stroke="none">
<path d="M2295 4859 c-40 -4 -92 -22 -155 -52 -52 -24 -109 -48 -126 -51 -29
-6 -86 2 -126 19 -14 5 -18 2 -18 -12 0 -16 -6 -18 -35 -15 -81 10 -216 -51
-236 -106 -6 -15 -29 -39 -54 -54 -26 -16 -59 -50 -81 -83 -35 -53 -38 -62
-37 -126 l1 -69 -54 -30 c-127 -73 -319 -240 -437 -380 -109 -130 -183 -243
-260 -396 -83 -166 -122 -275 -159 -449 -25 -119 -31 -169 -35 -338 -11 -391
57 -678 240 -1009 l37 -67 -61 -53 c-33 -29 -83 -82 -109 -117 -53 -70 -127
-211 -136 -260 -6 -28 -4 -30 32 -38 32 -6 1923 -9 3777 -4 l397 1 12 26 c18
38 -5 132 -59 244 -37 76 -60 109 -117 165 -39 39 -99 86 -134 105 -106 59
-101 44 -54 151 56 128 98 259 130 408 25 118 27 142 27 376 0 222 -3 263 -23
365 -58 287 -164 520 -369 810 -99 140 -358 370 -528 468 -54 32 -73 50 -94
88 -28 52 -80 94 -117 94 -17 0 -29 11 -44 39 -11 22 -37 52 -58 67 -22 15
-46 40 -54 54 -21 36 -78 78 -116 86 -39 8 -41 -4 -7 -36 14 -13 25 -28 25
-33 0 -5 -21 13 -47 41 -59 63 -122 92 -216 99 -40 3 -102 14 -138 24 -83 24
-80 24 -69 -6 13 -33 4 -32 -100 11 -109 44 -141 51 -215 43z m423 -677 c-2
-9 7 -19 22 -23 14 -4 21 -8 15 -9 -5 -2 24 -8 65 -15 63 -11 79 -10 102 1 15
8 33 14 39 14 7 0 20 6 29 13 9 6 4 1 -10 -13 -15 -14 -35 -31 -46 -38 -16
-11 -10 -12 44 -7 35 2 72 9 82 15 14 8 20 8 20 0 0 -17 26 -40 35 -32 5 4 5
1 1 -6 -10 -16 4 -99 13 -83 4 6 20 -17 37 -54 22 -46 26 -60 13 -49 -15 14
-17 14 -15 0 1 -8 10 -23 19 -34 20 -21 23 -37 5 -26 -6 4 -2 -8 9 -27 38 -61
61 -133 65 -205 l4 -71 -60 33 c-45 25 -62 40 -71 66 -13 38 -34 77 -35 64 0
-5 -9 3 -21 18 -27 35 -99 83 -149 101 -23 8 -39 11 -36 7 2 -4 -11 -6 -30 -4
-48 6 -189 -16 -246 -38 -26 -10 -45 -13 -41 -7 4 6 -10 1 -31 -11 -20 -12
-34 -18 -31 -12 14 23 -15 7 -39 -21 -25 -30 -26 -30 -27 -7 0 21 -1 21 -8 4
-7 -18 -9 -16 -19 14 -7 18 -13 47 -13 64 l-1 31 -8 -30 c-4 -16 -8 -53 -9
-82 -1 -58 -19 -77 -69 -71 -39 4 -53 40 -50 125 3 68 3 71 -11 45 -8 -15 -22
-52 -31 -82 l-16 -54 -22 22 c-24 24 -37 29 -26 10 6 -9 3 -9 -9 0 -9 8 -21
11 -27 7 -6 -4 -9 -1 -8 6 2 6 -3 14 -11 17 -9 3 -11 0 -6 -8 6 -9 3 -9 -14
-1 -31 17 -150 52 -201 60 l-45 7 2 77 c3 88 21 132 61 149 17 8 106 13 237
15 159 1 221 6 254 18 24 8 49 15 55 15 14 0 -40 -37 -73 -51 -44 -18 -13 -21
43 -5 31 9 59 17 63 17 29 3 93 49 144 104 58 61 93 76 87 37z m37 -2 c-3 -5
-14 -10 -23 -10 -15 0 -15 2 -2 10 20 13 33 13 25 0z m140 -48 c-3 -3 -11 0
-18 7 -9 10 -8 11 6 5 10 -3 15 -9 12 -12z m-1078 -498 c-3 -3 -12 -4 -19 -1
-8 3 -5 6 6 6 11 1 17 -2 13 -5z m216 -1 c-7 -2 -19 -2 -25 0 -7 3 -2 5 12 5
14 0 19 -2 13 -5z m614 1 c-3 -3 -12 -4 -19 -1 -8 3 -5 6 6 6 11 1 17 -2 13
-5z m266 -1 c-7 -2 -19 -2 -25 0 -7 3 -2 5 12 5 14 0 19 -2 13 -5z m87 -39 c0
-2 -9 0 -20 6 -11 6 -20 13 -20 16 0 2 9 0 20 -6 11 -6 20 -13 20 -16z m-20
-9 c8 -5 18 -10 22 -10 3 0 10 -4 15 -9 5 -5 2 -6 -7 -2 -8 4 -7 1 3 -7 66
-54 39 -267 -42 -340 -59 -53 -98 -70 -177 -75 -98 -6 -156 14 -216 76 -25 26
-56 66 -68 90 -24 48 -36 127 -26 167 6 23 8 24 21 11 8 -8 24 -18 35 -21 11
-3 20 -14 20 -23 0 -51 97 -158 160 -177 23 -7 22 -4 -12 32 -55 56 -51 65 25
58 l62 -6 -42 20 c-53 25 -55 32 -5 20 65 -15 59 -8 -13 15 -68 21 -93 46 -52
54 9 2 17 -1 17 -7 0 -6 14 -18 30 -26 34 -18 64 -13 95 15 18 17 22 17 40 4
16 -12 18 -18 7 -34 -10 -16 -10 -20 1 -20 17 0 49 34 41 42 -3 4 12 2 34 -4
25 -6 47 -6 57 -1 35 20 -44 77 -200 144 -37 16 -46 23 -33 28 24 9 190 -2
208 -14z m-560 5 l25 -8 -25 0 c-14 0 -45 3 -70 7 l-45 8 45 1 c25 0 56 -4 70
-8z m-751 -48 c-27 -43 -30 -56 -27 -113 2 -51 6 -63 18 -61 12 3 13 1 3 -9
-15 -15 -17 -33 -4 -25 5 3 12 -1 15 -10 3 -8 2 -12 -4 -9 -6 3 -10 1 -10 -4
0 -6 5 -11 12 -11 6 0 8 -3 5 -6 -12 -13 13 -43 31 -38 10 4 13 3 6 -3 -9 -6
-8 -12 2 -21 12 -11 14 -9 12 17 -1 16 -6 28 -10 25 -4 -3 -1 8 7 23 8 15 15
34 15 41 0 18 9 15 52 -14 49 -34 120 -42 168 -20 19 9 27 14 18 11 -30 -8
-20 5 12 16 17 6 30 15 30 20 0 4 7 5 17 2 11 -4 14 -3 9 5 -5 8 1 11 18 10
15 -1 26 -4 26 -6 0 -13 -29 -54 -64 -91 -44 -47 -35 -46 27 2 l37 29 -1 -29
c0 -15 -6 -44 -13 -63 -16 -44 -73 -69 -160 -69 -77 -1 -124 14 -182 58 -66
50 -95 111 -101 215 -5 77 -3 83 26 129 17 26 33 47 35 47 3 0 -8 -22 -25 -48z
m350 24 c-2 -2 -31 -6 -64 -9 -36 -3 -52 -2 -40 3 19 8 113 14 104 6z m861
-43 c57 -31 114 -79 102 -86 -5 -4 -32 12 -61 33 -29 22 -77 47 -107 57 -34
10 -50 20 -42 24 17 11 54 1 108 -28z m-860 12 c23 -8 47 -12 53 -8 6 3 7 1 3
-5 -4 -7 -2 -12 5 -12 7 0 10 -2 7 -5 -3 -3 -18 -1 -34 5 -16 7 -57 12 -91 12
-60 0 -83 11 -45 21 33 9 60 7 102 -8z m780 -29 c0 -3 -4 -8 -10 -11 -5 -3
-10 -1 -10 4 0 6 5 11 10 11 6 0 10 -2 10 -4z m-782 -17 c-2 -6 -8 -10 -13
-10 -5 0 -11 4 -13 10 -2 6 4 11 13 11 9 0 15 -5 13 -11z m383 0 c11 -6 18
-16 15 -24 -6 -17 21 -120 44 -166 11 -20 31 -51 46 -69 16 -18 28 -41 29 -50
1 -15 -3 -17 -22 -9 -38 14 -39 11 -6 -23 64 -69 77 -106 49 -144 -14 -19 -14
-19 -13 0 5 47 -144 83 -174 43 -3 -5 -27 -9 -53 -10 -41 -2 -51 2 -72 26 -29
34 -30 56 -5 138 24 78 41 170 41 219 0 52 23 80 66 80 20 0 44 -5 55 -11z
m864 -31 c28 -125 32 -276 10 -361 -8 -32 -15 -69 -15 -82 0 -29 -16 -34 -23
-7 -5 19 -10 -37 -7 -80 1 -16 -3 -28 -8 -28 -5 0 -9 -42 -9 -92 0 -55 -6
-105 -14 -123 l-13 -30 -4 28 c-2 15 -7 27 -12 27 -4 0 -4 -16 0 -36 10 -44 2
-100 -16 -115 -11 -9 -14 -8 -14 5 0 10 4 15 8 12 4 -2 9 8 10 23 1 18 -3 28
-12 28 -8 0 -12 -5 -10 -11 2 -6 0 -33 -5 -61 l-9 -50 -2 45 -3 45 -7 -35 c-4
-19 -8 -30 -10 -25 -1 6 -6 -1 -11 -15 -8 -22 -8 -21 -4 8 2 17 0 32 -5 32 -6
0 -10 -16 -10 -36 0 -21 -4 -33 -10 -29 -5 3 -10 0 -11 -7 0 -7 -4 -4 -9 7 -8
17 -9 15 -7 -10 1 -22 6 -29 19 -27 12 2 16 -2 12 -12 -4 -10 -17 -14 -40 -11
-33 3 -34 2 -34 -34 l-1 -36 -14 30 c-7 17 -14 26 -15 20 0 -5 -7 -19 -15 -29
-13 -17 -17 -17 -31 -5 -16 13 -16 12 0 -13 9 -14 13 -29 8 -32 -5 -3 -17 13
-27 35 -19 40 -46 70 -31 33 5 -10 10 -34 12 -51 3 -25 1 -33 -11 -33 -10 0
-13 -5 -9 -12 4 -7 4 -10 -1 -6 -4 4 -14 3 -22 -3 -9 -9 -13 -8 -13 0 0 6 5
11 11 11 5 0 7 5 3 12 -4 7 -3 8 4 4 7 -4 12 -1 12 8 0 8 -5 18 -12 22 -7 4
-8 3 -4 -4 4 -7 1 -12 -8 -12 -8 0 -17 9 -21 19 -3 11 -13 25 -23 33 -15 12
-15 11 1 -14 19 -31 22 -42 7 -33 -5 3 -5 -7 2 -25 8 -24 7 -34 -2 -43 -10 -9
-11 -7 -5 10 5 18 3 22 -9 17 -11 -4 -13 -11 -5 -31 15 -40 10 -50 -10 -20
l-19 29 -10 -49 c-9 -46 -10 -46 -11 -12 -1 36 -34 80 -49 65 -4 -5 3 -15 16
-23 12 -9 22 -23 21 -32 0 -12 -2 -12 -10 4 -7 15 -8 11 -4 -17 3 -20 1 -39
-5 -43 -5 -3 -7 0 -4 8 3 8 -1 30 -9 48 l-15 34 5 -45 c3 -34 2 -41 -6 -30 -9
12 -11 11 -12 -10 -1 -17 -4 -12 -9 15 -5 30 -8 33 -9 13 0 -15 -6 -30 -12
-34 -9 -5 -10 1 -5 20 5 20 3 26 -5 21 -8 -5 -9 1 -4 23 3 16 2 33 -3 36 -6 3
-8 -3 -5 -14 3 -12 0 -20 -6 -20 -7 0 -9 5 -6 10 6 9 -8 15 -29 11 -5 -1 -6 5
-3 13 4 9 1 18 -5 22 -7 4 -8 3 -4 -4 7 -11 -7 -17 -29 -12 -5 1 -6 -2 -2 -7
5 -4 14 -8 20 -8 7 0 12 -7 13 -15 0 -8 6 -33 12 -55 9 -31 9 -42 -2 -53 -10
-11 -12 -7 -10 20 2 18 1 24 -3 13 -9 -32 -26 -36 -46 -12 l-18 22 6 -25 6
-25 -15 26 c-9 15 -23 29 -32 33 -13 5 -15 2 -11 -16 4 -13 2 -30 -3 -38 -7
-11 -10 -8 -10 15 0 17 -4 37 -9 44 -8 12 -11 9 -16 -12 -7 -25 -9 -26 -20
-11 -6 9 -17 14 -23 10 -6 -3 -12 -1 -15 6 -2 7 -3 5 -2 -4 5 -31 -10 -28 -25
5 -12 27 -14 29 -20 11 -4 -10 -6 -22 -3 -26 2 -5 0 -8 -5 -8 -6 0 -13 8 -16
17 -6 13 -9 14 -15 5 -5 -8 -8 -2 -9 18 -1 40 -12 54 -12 15 0 -23 -2 -26 -15
-15 -8 7 -16 22 -16 34 -2 20 -2 20 -6 -1 -6 -32 -17 -28 -31 10 -14 38 -15
73 -2 42 7 -16 9 -17 9 -3 1 25 -16 31 -28 11 -16 -27 -13 0 4 41 10 24 28 42
57 57 36 18 53 20 137 16 53 -3 107 -8 121 -12 24 -6 24 -6 -2 10 -32 18 -34
27 -13 45 21 17 19 37 -6 50 -25 14 -19 21 29 37 l37 11 -60 1 c-33 0 -69 2
-80 5 -11 2 -29 5 -40 5 -11 1 -27 6 -35 11 -13 8 -13 11 2 26 39 39 192 8
349 -72 63 -32 122 -62 133 -67 17 -7 17 -5 5 10 -13 17 -13 17 7 1 26 -22 34
-23 34 -2 0 14 3 14 16 3 13 -10 17 -10 25 2 5 8 9 18 9 23 0 4 7 6 15 2 12
-4 15 5 16 47 0 40 3 47 10 32 6 -14 7 -7 3 25 -6 53 -45 135 -63 135 -7 0
-18 10 -25 23 -6 12 -34 40 -60 62 -49 40 -62 48 -51 30 13 -21 -10 -9 -44 23
-21 18 -27 22 -16 8 20 -24 8 -22 -25 4 -8 7 -24 15 -34 19 -17 6 -17 4 -5
-10 7 -9 -4 -4 -26 10 -22 15 -47 25 -56 23 -8 -2 -23 1 -33 8 -15 11 -15 13
-1 19 9 3 13 2 10 -4 -8 -13 28 -13 58 1 12 6 29 20 36 31 16 26 16 89 0 120
l-12 22 27 -17 c61 -40 253 -57 239 -21 -3 9 2 14 14 14 42 0 143 61 178 107
33 43 75 152 75 194 0 13 7 19 23 20 12 0 45 11 72 24 63 30 64 30 70 3z
m-1185 -30 c0 -15 -75 -51 -115 -55 -46 -4 -112 15 -85 25 8 3 19 11 23 19 7
11 12 11 30 -2 34 -23 75 -19 105 13 24 24 41 24 42 0z m1431 -17 c22 -17 24
-29 27 -116 4 -105 1 -119 -81 -315 -45 -109 -77 -148 -130 -157 -32 -5 -37
-3 -37 13 0 20 31 203 53 313 l13 63 12 -61 c12 -55 11 -64 -8 -103 -11 -23
-18 -43 -16 -45 2 -2 20 6 40 18 38 22 42 31 50 122 4 49 2 60 -16 76 -19 18
-19 20 -2 46 17 27 18 27 26 6 4 -12 14 -21 22 -21 7 0 16 -6 19 -12 5 -15 2
-77 -7 -116 -3 -15 6 -2 21 28 20 42 26 70 26 115 -2 131 -34 142 -115 36
l-51 -66 7 55 c15 114 85 171 147 121z m-1541 -56 c-29 -16 -70 -20 -70 -6 0
6 17 12 38 14 20 2 42 4 47 5 6 1 -1 -5 -15 -13z m183 -172 c-3 -10 -21 -35
-40 -56 -18 -20 -33 -40 -33 -45 0 -4 -10 -12 -22 -17 -37 -17 -58 -57 -64
-123 -6 -55 -13 -71 -51 -119 -23 -31 -43 -50 -44 -42 0 8 -7 1 -14 -16 l-13
-30 -21 48 c-31 71 -34 93 -22 129 9 25 9 30 0 21 -10 -10 -20 -1 -47 38 -21
32 -30 55 -24 61 5 5 55 15 110 23 114 16 154 33 233 99 30 25 55 46 56 46 1
0 0 -8 -4 -17z m292 -141 c-3 -3 -11 0 -18 7 -9 10 -8 11 6 5 10 -3 15 -9 12
-12z m-638 -304 c-3 -8 -6 -5 -6 6 -1 11 2 17 5 13 3 -3 4 -12 1 -19z m-100
-30 c-3 -8 -6 -5 -6 6 -1 11 2 17 5 13 3 -3 4 -12 1 -19z m443 -167 c0 -13
-41 -41 -58 -41 -20 0 -9 23 19 37 29 15 39 16 39 4z m1027 -456 c10 -30 10
-29 17 18 l7 48 27 -28 c16 -17 28 -42 30 -63 3 -40 -6 -36 -14 6 -8 44 -14
42 -14 -4 0 -23 5 -42 10 -42 6 0 10 -5 10 -11 0 -5 -4 -8 -9 -5 -5 3 -8 -6
-8 -20 0 -69 -209 -279 -378 -380 -113 -68 -257 -104 -416 -104 -120 0 -115
-4 -125 86 l-7 54 42 0 c22 0 41 3 41 6 0 4 -18 38 -40 76 -22 39 -40 71 -40
73 0 1 24 4 53 7 62 5 170 57 267 128 36 26 85 61 110 78 104 71 303 284 375
402 l40 65 6 -180 c4 -99 11 -193 16 -210z m-157 325 c0 -11 -4 -20 -9 -20 -7
0 -8 17 -2 38 4 10 11 -2 11 -18z m-122 -75 c-3 -3 -9 2 -12 12 -6 14 -5 15 5
6 7 -7 10 -15 7 -18z m-316 -106 c12 -8 15 -57 3 -61 -5 -2 -11 12 -13 30 -2
17 -7 32 -12 32 -5 0 -6 8 -3 17 5 14 8 14 11 2 3 -7 9 -17 14 -20z m165 -21
c-3 -8 -6 -5 -6 6 -1 11 2 17 5 13 3 -3 4 -12 1 -19z m-440 -60 c-3 -7 -5 -2
-5 12 0 14 2 19 5 13 2 -7 2 -19 0 -25z m57 7 c3 -8 1 -15 -4 -15 -6 0 -10 7
-10 15 0 8 2 15 4 15 2 0 6 -7 10 -15z"/>
<path d="M2610 3032 c0 -17 27 -46 74 -83 11 -7 0 12 -24 44 -24 31 -44 57
-46 57 -2 0 -4 -8 -4 -18z"/>
<path d="M3161 2823 c-1 -6 -4 -20 -7 -30 -5 -17 -5 -17 6 0 6 10 9 23 6 30
-3 9 -5 9 -5 0z"/>
<path d="M3177 2758 c9 -52 22 -69 20 -27 -1 20 -8 42 -14 48 -10 9 -11 4 -6
-21z"/>
<path d="M3141 2704 c0 -11 3 -14 6 -6 3 7 2 16 -1 19 -3 4 -6 -2 -5 -13z"/>
<path d="M3071 2584 c0 -11 3 -14 6 -6 3 7 2 16 -1 19 -3 4 -6 -2 -5 -13z"/>
<path d="M3047 2529 c4 -13 8 -18 11 -10 2 7 -1 18 -6 23 -8 8 -9 4 -5 -13z"/>
<path d="M2660 2376 c7 -7 13 -7 20 0 6 6 3 10 -10 10 -13 0 -16 -4 -10 -10z"/>
<path d="M2730 2386 c0 -4 7 -14 15 -22 8 -9 15 -11 15 -6 0 5 -7 15 -15 22
-8 7 -15 9 -15 6z"/>
<path d="M2825 2380 c3 -5 8 -10 11 -10 2 0 4 5 4 10 0 6 -5 10 -11 10 -5 0
-7 -4 -4 -10z"/>
<path d="M2661 2355 c0 -5 6 -19 14 -29 8 -11 15 -15 15 -10 0 6 -7 19 -15 30
-8 10 -14 15 -14 9z"/>
<path d="M2721 2324 c13 -17 26 -30 28 -27 3 2 -8 16 -24 31 l-28 27 24 -31z"/>
<path d="M2613 2325 c0 -8 4 -12 9 -9 5 3 6 10 3 15 -9 13 -12 11 -12 -6z"/>
<path d="M2750 2331 c0 -5 5 -13 10 -16 6 -3 10 -2 10 4 0 5 -4 13 -10 16 -5
3 -10 2 -10 -4z"/>
<path d="M2700 2302 c0 -5 7 -15 15 -22 8 -7 15 -8 15 -2 0 5 -7 15 -15 22 -8
7 -15 8 -15 2z"/>
<path d="M2271 2204 c0 -11 3 -14 6 -6 3 7 2 16 -1 19 -3 4 -6 -2 -5 -13z"/>
<path d="M2458 2210 c7 -8 20 -15 29 -15 10 0 20 -11 24 -25 4 -14 8 -18 8
-10 1 8 4 25 7 38 4 13 2 22 -5 22 -6 0 -8 -8 -4 -17 6 -16 5 -16 -10 -4 -10
8 -20 11 -24 8 -3 -4 -13 -1 -22 5 -14 10 -14 10 -3 -2z"/>
<path d="M3417 2995 c-17 -21 -21 -32 -12 -29 13 5 52 64 43 64 -2 0 -15 -16
-31 -35z"/>
<path d="M2581 2184 c0 -11 3 -14 6 -6 3 7 2 16 -1 19 -3 4 -6 -2 -5 -13z"/>
</g>
</svg>
